<svg width="31" height="31" viewBox="0 0 31 31" fill="none" xmlns="http://www.w3.org/2000/svg">
<g clip-path="url(#clip0_93_29982)">
<path d="M15.0079 30.5C23.2921 30.5 30.0079 23.7843 30.0079 15.5C30.0079 7.21573 23.2921 0.5 15.0079 0.5C6.7236 0.5 0.00787354 7.21573 0.00787354 15.5C0.00787354 23.7843 6.7236 30.5 15.0079 30.5Z" fill="#FEB109"/>
<path d="M15.0109 28.7938C12.3818 28.7938 9.81169 28.0141 7.62567 26.5535C5.43964 25.0928 3.73586 23.0167 2.72975 20.5878C1.72363 18.1588 1.46038 15.486 1.97329 12.9074C2.4862 10.3288 3.75222 7.96026 5.61128 6.1012C7.47034 4.24214 9.83895 2.9761 12.4175 2.46319C14.9961 1.95028 17.6689 2.21353 20.0979 3.21964C22.5269 4.22576 24.603 5.92954 26.0636 8.11556C27.5243 10.3016 28.3039 12.8716 28.3039 15.5008C28.2997 19.025 26.8978 22.4037 24.4058 24.8957C21.9138 27.3878 18.5351 28.7896 15.0109 28.7938Z" fill="#132B4D"/>
<path d="M7.92114 15.4978C7.89433 14.4702 8.07697 13.4478 8.45791 12.4931C8.83886 11.5383 9.4101 10.671 10.1369 9.94413C10.8638 9.21722 11.731 8.64586 12.6857 8.26483C13.6405 7.88379 14.6628 7.70107 15.6904 7.72778C16.9644 7.70871 18.2219 8.0166 19.343 8.62204C20.4641 9.22748 21.4112 10.1102 22.0939 11.186L19.1486 12.8938C18.7881 12.3073 18.2774 11.8279 17.6694 11.5051C17.0614 11.1823 16.3781 11.0279 15.6904 11.0578C13.0436 11.0578 11.3367 12.8293 11.3367 15.4978C11.3367 18.1663 13.0436 19.937 15.6904 19.937C16.3785 19.9696 17.0626 19.8164 17.6711 19.4934C18.2796 19.1705 18.7899 18.6898 19.1486 18.1018L22.0939 19.8088C21.415 20.8881 20.4687 21.7737 19.3467 22.3796C18.2248 22.9856 16.9653 23.2912 15.6904 23.267C14.6628 23.2937 13.6406 23.111 12.6859 22.73C11.7312 22.3491 10.8641 21.7778 10.1373 21.0509C9.41043 20.3241 8.83909 19.4569 8.4581 18.5023C8.07711 17.5476 7.89443 16.5253 7.92114 15.4978Z" fill="#E215A7"/>
<path d="M5.73862 15.9118C5.84752 15.9118 5.95197 15.8685 6.02898 15.7915C6.10598 15.7145 6.14923 15.6101 6.14923 15.5012C6.14923 15.3923 6.10598 15.2878 6.02898 15.2108C5.95197 15.1338 5.84752 15.0905 5.73862 15.0905H4.33685C4.44339 12.4035 5.55857 9.85525 7.46008 7.95374C9.3616 6.05222 11.9098 4.93707 14.5968 4.83053V6.03953C14.5968 6.14843 14.6401 6.25288 14.7171 6.32989C14.7942 6.40689 14.8986 6.45014 15.0075 6.45014C15.1164 6.45014 15.2209 6.40689 15.2979 6.32989C15.3749 6.25288 15.4181 6.14843 15.4181 6.03953V4.41277C15.4181 4.3039 15.3749 4.19947 15.298 4.12241C15.2211 4.04536 15.1167 4.00197 15.0079 4.00177C11.9592 4.00514 9.0364 5.21761 6.88055 7.37318C4.72471 9.52874 3.51189 12.4514 3.50812 15.5C3.50812 15.6089 3.55132 15.7133 3.62823 15.7904C3.70515 15.8674 3.80949 15.9108 3.91837 15.911L5.73862 15.9118Z" fill="#FEB109"/>
<path d="M14.9074 25.3856C14.9021 25.2768 14.9402 25.1704 15.0133 25.0897C15.0864 25.009 15.1886 24.9606 15.2974 24.9553C15.4061 24.9499 15.5126 24.988 15.5933 25.0611C15.674 25.1342 15.7223 25.2364 15.7277 25.3452L15.7966 26.7453C18.4752 26.5067 20.9655 25.2676 22.7712 23.2748C24.5769 21.2821 25.5653 18.6821 25.5396 15.9931L24.3321 16.0526C24.2233 16.0579 24.1168 16.0198 24.0361 15.9467C23.9554 15.8736 23.9071 15.7714 23.9018 15.6626C23.8964 15.5538 23.9345 15.4474 24.0076 15.3667C24.0807 15.286 24.1829 15.2376 24.2917 15.2323L25.9165 15.1523C26.0252 15.1469 26.1316 15.1849 26.2124 15.258C26.2931 15.331 26.3416 15.4331 26.3471 15.5418C26.4937 18.5869 25.4265 21.5659 23.3795 23.8251C21.3326 26.0844 18.4731 27.4394 15.4284 27.5932C15.3196 27.5985 15.2132 27.5605 15.1325 27.4875C15.0517 27.4144 15.0033 27.3123 14.9977 27.2036L14.9074 25.3856Z" fill="#FEB109"/>
<path d="M18.3716 5.36229C20.036 5.91231 21.539 6.86442 22.7474 8.13421C23.9558 9.40399 24.8324 10.9523 25.2994 12.6418C25.3236 12.7281 25.3753 12.804 25.4466 12.8582C25.5179 12.9123 25.605 12.9417 25.6946 12.9418C25.7316 12.9418 25.7685 12.9368 25.8041 12.9268C25.8561 12.9125 25.9047 12.8881 25.9472 12.8549C25.9897 12.8218 26.0252 12.7806 26.0518 12.7337C26.0783 12.6868 26.0953 12.6352 26.1019 12.5817C26.1084 12.5282 26.1044 12.474 26.0899 12.4221C25.5871 10.6026 24.6432 8.9353 23.3418 7.56791C22.0405 6.20052 20.422 5.17529 18.6296 4.58306C18.5263 4.54885 18.4136 4.55707 18.3163 4.60595C18.2191 4.65483 18.1452 4.74033 18.111 4.84367C18.0768 4.947 18.085 5.0597 18.1339 5.15696C18.1828 5.25422 18.2683 5.32808 18.3716 5.36229Z" fill="#FEB109"/>
<path d="M12.2141 25.8133C10.3746 25.3155 8.70181 24.3343 7.36972 22.9715C6.03762 21.6086 5.09476 19.914 4.63911 18.0635C4.62621 18.0112 4.60313 17.9619 4.57118 17.9185C4.53923 17.875 4.49903 17.8383 4.45289 17.8104C4.40675 17.7825 4.35559 17.764 4.30229 17.7559C4.24899 17.7478 4.1946 17.7502 4.14226 17.7632C4.08991 17.7761 4.04062 17.7992 3.99719 17.8311C3.95376 17.8631 3.91705 17.9032 3.88916 17.9494C3.86127 17.9955 3.84275 18.0467 3.83464 18.1C3.82653 18.1533 3.82897 18.2077 3.84187 18.26C4.3328 20.2529 5.34836 22.0779 6.78305 23.5455C8.21773 25.0132 10.0192 26.0699 12.0004 26.606C12.0524 26.6201 12.1067 26.6238 12.1602 26.6169C12.2137 26.61 12.2653 26.5926 12.3121 26.5658C12.3588 26.5389 12.3998 26.5031 12.4328 26.4604C12.4657 26.4177 12.4899 26.369 12.504 26.3169C12.5181 26.2648 12.5218 26.2105 12.5149 26.157C12.508 26.1036 12.4906 26.052 12.4638 26.0052C12.4369 25.9584 12.4011 25.9174 12.3584 25.8845C12.3157 25.8516 12.2669 25.8274 12.2149 25.8133H12.2141Z" fill="#FEB109"/>
</g>
<defs>
<clipPath id="clip0_93_29982">
<rect width="30" height="30" fill="white" transform="translate(0.00787354 0.5)"/>
</clipPath>
</defs>
</svg>
